<?xml version="1.0" encoding="UTF-8"?>
<svg width="20px" height="26px" viewBox="0 0 20 26" version="1.1" xmlns="http://www.w3.org/2000/svg" xmlns:xlink="http://www.w3.org/1999/xlink">
    <!-- Generator: Sketch 42 (36781) - http://www.bohemiancoding.com/sketch -->
    <title>Page 1</title>
    <desc>Created with Sketch.</desc>
    <defs></defs>
    <g id="Page-1" stroke="none" stroke-width="1" fill="none" fill-rule="evenodd">
        <path d="M15.3846154,6.60098462 L15.3846154,5.48621538 C15.3846154,2.52498462 12.9612308,0.1016 10,0.1016 C7.03876923,0.1016 4.61538462,2.52498462 4.61538462,5.48621538 L4.61538462,6.60098462 L0,6.60098462 L0,24.6779077 C0,25.1016 0.345553846,25.4471385 0.769230769,25.4471385 L19.2307692,25.4471385 C19.6544615,25.4471385 20,25.1015846 20,24.6779077 L20,6.60098462 L15.3846154,6.60098462 Z M6.15384615,5.52525385 C6.15384615,3.40986923 7.88461538,1.6791 10,1.6791 C12.1153846,1.6791 13.8461538,3.40986923 13.8461538,5.52525385 L13.8461538,6.64002308 L6.15384615,6.64002308 L6.15384615,5.52525385 Z M18.4615385,23.9087154 L1.53846154,23.9087154 L1.53846154,8.13948462 L4.61538462,8.13948462 L4.61538462,13.1787154 L6.15384615,13.1787154 L6.15384615,8.13948462 L13.8461538,8.13948462 L13.8461538,13.1787154 L15.3846154,13.1787154 L15.3846154,8.13948462 L18.4615385,8.13948462 L18.4615385,23.9087154 Z" fill="#000000"></path>
    </g>
</svg>