<?xml version="1.0" encoding="UTF-8"?>
<svg width="108px" height="51px" viewBox="0 0 108 51" version="1.1" xmlns="http://www.w3.org/2000/svg" xmlns:xlink="http://www.w3.org/1999/xlink">
    <!-- Generator: Sketch 42 (36781) - http://www.bohemiancoding.com/sketch -->
    <title>Group 7</title>
    <desc>Created with Sketch.</desc>
    <defs></defs>
    <g id="Page-1" stroke="none" stroke-width="1" fill="none" fill-rule="evenodd">
        <g id="Group-7">
            <g id="hiut" fill-rule="nonzero" fill="#C6161C">
                <g id="Page-1">
                    <g>
                        <g id="hiut">
                            <path d="M20.9579573,0.159430124 C32.6942078,-0.997722804 44.0525317,7.15757112 46.0226826,19.5674492 C48.050915,32.3424682 38.9555357,44.3951395 26.1095338,46.0012208 C24.5052157,46.2016438 24.5072843,46.2022786 24.0881439,47.745202 C23.1405429,51.2337991 23.3030115,50.6198352 23.094396,50.9789462 C22.8421798,50.3486374 22.0783703,47.4414731 21.9176521,46.7983107 C21.7987842,46.322088 21.5928739,46.1069071 21.0757113,46.0540639 C10.3608969,44.9597514 2.19227312,37.3816058 0.341308228,26.805209 C-1.96428241,13.6306135 7.84812295,1.4521026 20.9579573,0.159430124 L20.9579573,0.159430124 Z M7.07953969,10.1494748 C6.63668934,10.674732 6.63859886,10.9746523 7.13539326,11.4861038 C19.7926705,24.5102631 22.0564108,37.553941 23.1534321,40.4920494 C24.2027154,37.2675091 26.6292425,24.3382453 39.1157766,11.4943556 C39.6630142,10.9314893 39.6628551,10.6169697 39.1681293,10.0391866 C30.4587921,-0.136046941 15.6233849,0.0178804234 7.07953969,10.1494748 L7.07953969,10.1494748 Z M43.8630114,23.0930205 C43.857442,19.7877081 42.9353011,16.1639088 41.4671957,13.4990611 C41.1987486,13.011889 41.0315061,12.935084 40.6467371,13.3822667 C38.3635834,16.0350542 28.7399026,25.4092307 25.2041014,42.9006159 C25.0906438,43.4620541 25.0639105,43.6899301 25.8017823,43.5909087 C36.14599,42.2023887 43.8805154,33.4426522 43.8630114,23.0930205 L43.8630114,23.0930205 Z M20.4985578,43.5864655 C21.105468,43.6612075 21.1783482,43.5066455 21.0712557,42.9793252 C18.7801457,31.6867694 13.6510061,21.8677905 5.72218665,13.4927137 C5.29620376,13.0426745 5.11145736,13.0091913 4.80497881,13.609508 C-1.95107487,26.8426594 6.8211175,41.9024684 20.4985578,43.5864655 L20.4985578,43.5864655 Z" id="Fill-2"></path>
                            <path d="M33.4771124,32.4622777 C32.8999589,32.4846527 32.8760899,32.3224735 33.0746803,31.8562482 C34.3933655,28.7613561 36.3579471,26.1637921 38.9985,24.0679996 C39.4112753,23.7404676 39.6117753,23.7449108 39.6905432,24.2953996 C39.7277789,24.5559653 39.7917479,24.8131985 39.8245281,25.0742402 C40.2683332,28.6039375 37.4990466,32.3062873 33.4771124,32.4622777" id="Fill-6"></path>
                            <path d="M12.7756487,32.4452981 C8.61543315,32.2109159 5.68383706,28.3095713 6.64098577,24.2912736 C6.73805322,23.8836042 6.81363853,23.6587433 7.27271983,24.0203932 C9.9651481,26.1414171 11.9755583,28.77056 13.276103,31.9362269 C13.4918791,32.4613255 13.4597355,32.4838593 12.7756487,32.4452981" id="Fill-7"></path>
                        </g>
                    </g>
                </g>
            </g>
            <path d="M54.4200293,2.2032 L56.2832274,2.2032 L56.2832274,6.36902069 L61.1778191,6.36902069 L61.1778191,2.2032 L63.0410171,2.2032 L63.0410171,12.662069 L61.1778191,12.662069 L61.1778191,8.05307586 L56.2832274,8.05307586 L56.2832274,12.662069 L54.4200293,12.662069 L54.4200293,2.2032 Z M66.8575452,2.2032 L68.7207432,2.2032 L68.7207432,12.662069 L66.8575452,12.662069 L66.8575452,2.2032 Z M80.9216625,8.82124138 C80.9216625,9.45153419 80.8132235,10.0202664 80.5963422,10.5274552 C80.379461,11.0346439 80.0837182,11.4655017 79.7091051,11.8200414 C79.334492,12.1745811 78.8908778,12.447868 78.3782493,12.6399103 C77.8656209,12.8319527 77.3086386,12.9279724 76.707286,12.9279724 C76.1059334,12.9279724 75.5489512,12.8319527 75.0363227,12.6399103 C74.5236942,12.447868 74.0776155,12.1745811 73.6980733,11.8200414 C73.3185311,11.4655017 73.0227883,11.0346439 72.8108361,10.5274552 C72.598884,10.0202664 72.4929095,9.45153419 72.4929095,8.82124138 L72.4929095,2.2032 L74.3561075,2.2032 L74.3561075,8.76215172 C74.3561075,9.01820818 74.3955399,9.28657101 74.4744058,9.56724828 C74.5532717,9.84792554 74.6838915,10.1064402 74.8662689,10.3428 C75.0486463,10.5791598 75.2901696,10.7736613 75.5908459,10.9263103 C75.8915222,11.0789594 76.2636652,11.1552828 76.707286,11.1552828 C77.1509068,11.1552828 77.5230498,11.0789594 77.8237261,10.9263103 C78.1244024,10.7736613 78.3659257,10.5791598 78.5483031,10.3428 C78.7306806,10.1064402 78.8613003,9.84792554 78.9401662,9.56724828 C79.0190321,9.28657101 79.0584645,9.01820818 79.0584645,8.76215172 L79.0584645,2.2032 L80.9216625,2.2032 L80.9216625,8.82124138 Z M86.8823471,3.88725517 L83.673506,3.88725517 L83.673506,2.2032 L91.9543862,2.2032 L91.9543862,3.88725517 L88.7455452,3.88725517 L88.7455452,12.662069 L86.8823471,12.662069 L86.8823471,3.88725517 Z M54.4200293,18.2066483 L58.5456822,18.2066483 C59.235759,18.2066483 59.9011802,18.3125162 60.5419658,18.5242552 C61.1827514,18.7359942 61.7495917,19.058522 62.2425037,19.4918483 C62.7354157,19.9251746 63.1297394,20.4692864 63.4254866,21.1242 C63.7212338,21.7791136 63.8691051,22.5497335 63.8691051,23.4360828 C63.8691051,24.3322803 63.699053,25.1078243 63.3589438,25.7627379 C63.0188345,26.4176516 62.5801494,26.9593013 62.0428753,27.3877034 C61.5056012,27.8161056 60.9091867,28.1361714 60.2536137,28.3479103 C59.5980407,28.5596493 58.9548002,28.6655172 58.3238729,28.6655172 L54.4200293,28.6655172 L54.4200293,18.2066483 Z M57.6732323,26.9814621 C58.2548684,26.9814621 58.8044571,26.9149869 59.3220147,26.7820345 C59.8395723,26.6490821 60.29058,26.4422704 60.6750513,26.1615931 C61.0595227,25.8809158 61.362659,25.5165333 61.5844694,25.0684345 C61.8062798,24.6203357 61.9171834,24.0762239 61.9171834,23.4360828 C61.9171834,22.80579 61.8186025,22.2641402 61.6214377,21.8111172 C61.4242729,21.3580943 61.1507108,20.9912497 60.8007433,20.7105724 C60.4507758,20.4298951 60.0367359,20.2230834 59.5586112,20.090131 C59.0804866,19.9571786 58.5555432,19.8907034 57.9837653,19.8907034 L56.2832274,19.8907034 L56.2832274,26.9814621 L57.6732323,26.9814621 Z M67.1680782,18.2066483 L74.1033154,18.2066483 L74.1033154,19.8907034 L69.0312763,19.8907034 L69.0312763,22.4611034 L73.8371442,22.4611034 L73.8371442,24.1451586 L69.0312763,24.1451586 L69.0312763,26.9814621 L74.3694865,26.9814621 L74.3694865,28.6655172 L67.1680782,28.6655172 L67.1680782,18.2066483 Z M77.7276087,18.2066483 L80.1970855,18.2066483 L85.2691246,25.9769379 L85.2986992,25.9769379 L85.2986992,18.2066483 L87.1618973,18.2066483 L87.1618973,28.6655172 L84.7959315,28.6655172 L79.6203814,20.6440966 L79.5908068,20.6440966 L79.5908068,28.6655172 L77.7276087,28.6655172 L77.7276087,18.2066483 Z M90.9784253,18.2066483 L92.8416234,18.2066483 L92.8416234,28.6655172 L90.9784253,28.6655172 L90.9784253,18.2066483 Z M96.7025133,18.2066483 L99.5416723,18.2066483 L102.336469,25.5337655 L105.160841,18.2066483 L107.970425,18.2066483 L107.970425,28.6655172 L106.195951,28.6655172 L106.195951,19.9793379 L106.166376,19.9793379 L102.98711,28.6655172 L101.685829,28.6655172 L98.5065622,19.9793379 L98.4769877,19.9793379 L98.4769877,28.6655172 L96.7025133,28.6655172 L96.7025133,18.2066483 Z M61.6066504,36.6623172 C61.222179,36.2486876 60.850036,35.9729386 60.4902103,35.8350621 C60.1303845,35.6971855 59.7680996,35.6282483 59.4033447,35.6282483 C58.8611415,35.6282483 58.3707015,35.724268 57.9320098,35.9163103 C57.4933181,36.1083527 57.1162461,36.3742535 56.8007824,36.7140207 C56.4853187,37.0537879 56.2413309,37.450177 56.0688117,37.9032 C55.8962925,38.356223 55.8100342,38.8437077 55.8100342,39.365669 C55.8100342,39.9270235 55.8962925,40.4440528 56.0688117,40.9167724 C56.2413309,41.389492 56.4853187,41.7981914 56.8007824,42.1428828 C57.1162461,42.4875741 57.4933181,42.758399 57.9320098,42.9553655 C58.3707015,43.152332 58.8611415,43.2508138 59.4033447,43.2508138 C59.8272491,43.2508138 60.2388244,43.14987 60.6380831,42.9479793 C61.0373418,42.7460886 61.4094848,42.4235608 61.7545232,41.9803862 L63.292401,43.0735448 C62.8192055,43.7235343 62.2425071,44.1962468 61.5622885,44.4916966 C60.8820699,44.7871463 60.1575002,44.934869 59.3885575,44.934869 C58.5801818,44.934869 57.8383603,44.8043806 57.1630709,44.5434 C56.4877815,44.2824194 55.906154,43.9131127 55.4181711,43.435469 C54.9301883,42.9578252 54.5481872,42.3841689 54.2721565,41.7144828 C53.9961258,41.0447967 53.8581125,40.3012593 53.8581125,39.4838483 C53.8581125,38.6467406 53.9961258,37.8859689 54.2721565,37.2015103 C54.5481872,36.5170518 54.9301883,35.9335472 55.4181711,35.4509793 C55.906154,34.9684114 56.4877815,34.5966427 57.1630709,34.3356621 C57.8383603,34.0746815 58.5801818,33.9441931 59.3885575,33.9441931 C60.0983507,33.9441931 60.7563784,34.0697574 61.3626601,34.3208897 C61.9689419,34.5720219 62.5333177,34.9979556 63.0558044,35.5987034 L61.6066504,36.6623172 Z M65.5119022,39.4838483 C65.5119022,38.6467406 65.6499155,37.8859689 65.9259462,37.2015103 C66.2019769,36.5170518 66.583978,35.9335472 67.0719609,35.4509793 C67.5599437,34.9684114 68.1415712,34.5966427 68.8168606,34.3356621 C69.49215,34.0746815 70.2339715,33.9441931 71.0423472,33.9441931 C71.8605811,33.9343448 72.6097961,34.054985 73.2900146,34.3061172 C73.9702332,34.5572495 74.5567897,34.9240941 75.0497017,35.4066621 C75.5426137,35.88923 75.9270793,36.4702725 76.20311,37.1498069 C76.4791407,37.8293413 76.617154,38.587651 76.617154,39.4247586 C76.617154,40.2421696 76.4791407,40.985707 76.20311,41.6553931 C75.9270793,42.3250792 75.5426137,42.9011976 75.0497017,43.3837655 C74.5567897,43.8663334 73.9702332,44.2430262 73.2900146,44.5138552 C72.6097961,44.7846841 71.8605811,44.9250206 71.0423472,44.934869 C70.2339715,44.934869 69.49215,44.8043806 68.8168606,44.5434 C68.1415712,44.2824194 67.5599437,43.9131127 67.0719609,43.435469 C66.583978,42.9578252 66.2019769,42.3841689 65.9259462,41.7144828 C65.6499155,41.0447967 65.5119022,40.3012593 65.5119022,39.4838483 Z M67.4638239,39.365669 C67.4638239,39.9270235 67.5500822,40.4440528 67.7226014,40.9167724 C67.8951206,41.389492 68.1391084,41.7981914 68.4545721,42.1428828 C68.7700358,42.4875741 69.1471078,42.758399 69.5857995,42.9553655 C70.0244912,43.152332 70.5149312,43.2508138 71.0571344,43.2508138 C71.5993376,43.2508138 72.0922423,43.152332 72.5358631,42.9553655 C72.9794839,42.758399 73.3590204,42.4875741 73.6744841,42.1428828 C73.9899478,41.7981914 74.2339355,41.389492 74.4064547,40.9167724 C74.5789739,40.4440528 74.6652322,39.9270235 74.6652322,39.365669 C74.6652322,38.8437077 74.5789739,38.356223 74.4064547,37.9032 C74.2339355,37.450177 73.9899478,37.0537879 73.6744841,36.7140207 C73.3590204,36.3742535 72.9794839,36.1083527 72.5358631,35.9163103 C72.0922423,35.724268 71.5993376,35.6282483 71.0571344,35.6282483 C70.5149312,35.6282483 70.0244912,35.724268 69.5857995,35.9163103 C69.1471078,36.1083527 68.7700358,36.3742535 68.4545721,36.7140207 C68.1391084,37.0537879 67.8951206,37.450177 67.7226014,37.9032 C67.5500822,38.356223 67.4638239,38.8437077 67.4638239,39.365669 Z M79.7534669,43.6348966 C79.7534669,43.3197501 79.8692995,43.0489253 80.1009682,42.8224138 C80.3326368,42.5959023 80.6111279,42.4826483 80.9364498,42.4826483 C81.2519135,42.4826483 81.5279401,42.5909782 81.7645378,42.8076414 C82.0011356,43.0243045 82.1194327,43.2902053 82.1194327,43.6053517 C82.1194327,43.9204981 82.0036001,44.191323 81.7719315,44.4178345 C81.5402628,44.644346 81.2617717,44.7576 80.9364498,44.7576 C80.778718,44.7576 80.6283821,44.7280555 80.4854376,44.6689655 C80.3424931,44.6098756 80.2168024,44.5310901 80.1083618,44.4326069 C79.9999212,44.3341236 79.9136629,44.2159455 79.8495843,44.078069 C79.7855057,43.9401924 79.7534669,43.7924698 79.7534669,43.6348966 Z" id="HIUT-DENIM-CO." fill="#000000"></path>
        </g>
    </g>
</svg>